<svg width="57" height="57" viewBox="0 0 57 57" fill="none" xmlns="http://www.w3.org/2000/svg">
<rect x="0.5" y="0.5" width="56" height="56" rx="28" stroke="#F58634" stroke-opacity="0.16"/>
<path d="M36.5 37.5V35.5C36.5 34.4391 36.0786 33.4217 35.3284 32.6716C34.5783 31.9214 33.5609 31.5 32.5 31.5H24.5C23.4391 31.5 22.4217 31.9214 21.6716 32.6716C20.9214 33.4217 20.5 34.4391 20.5 35.5V37.5M32.5 23.5C32.5 25.7091 30.7091 27.5 28.5 27.5C26.2909 27.5 24.5 25.7091 24.5 23.5C24.5 21.2909 26.2909 19.5 28.5 19.5C30.7091 19.5 32.5 21.2909 32.5 23.5Z" stroke="#F58634" stroke-width="1.5" stroke-linecap="round" stroke-linejoin="round"/>
</svg>
